<svg width="166" height="150" viewBox="0 0 166 150" fill="none" xmlns="http://www.w3.org/2000/svg">
<path d="M157.547 54.656C155.495 52.3663 153.438 50.081 151.385 47.7957C150.289 46.5693 149.197 45.3428 148.105 44.1075L147.393 43.3134L163.492 25.3752C164.856 23.8575 165.364 22.4369 164.997 21.1575C164.63 19.8869 163.461 18.934 161.512 18.3296C153.846 15.9472 146.174 13.5737 138.503 11.2002C126.768 7.56487 115.027 3.92957 103.296 0.276634C101.262 -0.363072 99.59 0.104575 98.199 1.70163C96.2551 3.92075 94.2388 6.1531 92.2904 8.31046L90.5187 10.2781C87.8997 13.1899 85.2853 16.0928 82.5394 19.1369C82.4216 19.0002 82.3038 18.8678 82.186 18.7355C80.6817 17.0546 79.1728 15.3825 77.6685 13.706C74.2022 9.85899 70.6226 5.87957 67.1473 1.93546C65.5659 0.144281 63.7671 -0.35866 61.4834 0.351634C47.2512 4.79869 32.7743 9.28546 18.7777 13.6266C13.7663 15.1796 8.75485 16.7325 3.74344 18.2899C1.66819 18.934 0.481039 19.8737 0.114019 21.1575C-0.257532 22.4546 0.277139 23.8796 1.74522 25.5163C5.5287 29.7207 9.30764 33.934 13.1183 38.1825L17.731 43.3134C17.6132 43.4458 17.5044 43.5737 17.3957 43.6972C15.0304 46.331 12.6652 48.9605 10.3 51.5943C7.34114 54.8855 4.38686 58.181 1.42804 61.4766C-0.103474 63.1928 -0.130661 64.5869 0.11855 65.456C0.367761 66.3296 1.13352 67.5163 3.38095 68.2222C4.58169 68.5972 5.77791 68.981 6.97865 69.3605C10.5537 70.4987 14.2556 71.6722 17.9349 72.709C18.9181 72.9869 19.0405 73.1634 19.0359 74.2752C18.9906 87.581 18.9952 101.108 18.9997 114.188V124.163C19.0042 127.225 19.6522 128.112 22.6336 129.166L36.7435 134.156C50.9939 139.199 65.729 144.409 80.2104 149.562C81.0351 149.853 81.8099 149.999 82.5847 149.999C83.3596 149.999 84.1027 149.858 84.9047 149.575C98.0087 144.916 111.117 140.28 124.226 135.638C130.361 133.468 136.5 131.297 142.636 129.122C145.427 128.138 146.106 127.168 146.106 124.163V113.655C146.111 100.64 146.115 87.184 146.075 73.9443C146.07 73.1016 146.161 73.0266 146.863 72.8193C151.657 71.4075 156.365 69.934 161.576 68.2928C163.483 67.6928 164.634 66.7399 164.992 65.4693C165.355 64.1987 164.87 62.809 163.556 61.3443C161.557 59.1119 159.55 56.884 157.547 54.656ZM103.206 8.08105C114.506 11.6016 125.812 15.1134 137.117 18.6208C142.907 20.4163 148.698 22.2163 154.484 24.0119C154.43 24.0737 154.38 24.131 154.326 24.1884C153.655 24.9516 153.007 25.6884 152.35 26.4207C151.299 27.5899 150.252 28.7546 149.201 29.9193C146.637 32.7605 143.99 35.6987 141.412 38.6105C141.032 39.0384 140.986 39.0252 140.606 38.906C128.489 35.1296 116.369 31.3663 104.248 27.6031L89.3406 22.9752C90.7136 21.4399 92.0366 19.9575 93.3643 18.4796C94.2433 17.5002 95.1223 16.5208 96.0059 15.5413C98.1083 13.2075 100.288 10.7899 102.404 8.38987C102.789 7.94869 102.852 7.97075 103.206 8.08105ZM14.2556 28.0663C13.0594 26.7384 11.8632 25.4149 10.6715 24.0869C10.6534 24.0649 10.6353 24.0472 10.6171 24.0252C10.9842 23.8972 11.3421 23.7781 11.7001 23.6678C16.1134 22.3002 20.5312 20.9369 24.9445 19.5693C36.9429 15.8634 49.3536 12.0252 61.5423 8.21781C62.2582 7.99722 62.4213 8.04134 62.9061 8.59281C65.8921 11.9766 68.9597 15.3825 71.9276 18.6781C73.2189 20.1119 74.5103 21.5457 75.8017 22.9884C73.6041 23.6678 71.4427 24.334 69.3041 24.9958C66.5627 25.8428 63.8577 26.6766 61.1526 27.5149L52.684 30.1399C43.5628 32.9634 34.1336 35.884 24.8675 38.7913C24.1652 39.0119 24.002 38.9634 23.5081 38.4031C20.4451 34.931 17.296 31.4413 14.2556 28.0663ZM10.6307 62.6237L12.1079 60.9737C13.2135 59.7472 14.3145 58.5163 15.4201 57.2899C18.1433 54.259 20.9571 51.1266 23.7075 48.0252C24.0836 47.5972 24.147 47.6149 24.514 47.7296C36.6982 51.5237 48.8824 55.309 61.071 59.0943L75.7881 63.6649C74.7051 64.8649 73.663 66.0252 72.6254 67.1855L70.3009 69.7663C67.7997 72.5457 65.2125 75.4178 62.6932 78.2678C62.3307 78.6825 62.2808 78.6693 61.8912 78.5502C49.3491 74.6369 36.594 70.6796 24.2558 66.8546L10.6307 62.6237ZM78.7061 102.766C78.7061 112.891 78.7016 123.012 78.7061 133.133V141.047C78.6517 141.03 78.6019 141.012 78.5475 140.994L65.1354 136.243C52.5888 131.8 40.0422 127.358 27.491 122.919C26.6527 122.624 26.6527 122.61 26.6573 122.09C26.7026 110.35 26.698 98.4075 26.698 86.8619V75.4972L27.7447 75.8149C30.0148 76.5119 32.2577 77.1957 34.4916 77.8884C36.7073 78.5766 38.923 79.2605 41.1387 79.9487C47.736 81.9869 54.5553 84.0913 61.2387 86.2355C63.7127 87.034 65.5931 86.5002 67.333 84.506C70.3734 81.0163 73.45 77.6105 76.7124 74.0016C77.3694 73.2737 78.0355 72.5369 78.7061 71.7913V102.766ZM83.5182 57.5634C82.9382 57.7443 82.3083 57.7796 81.9141 57.6605C67.3466 53.1781 52.539 48.5855 38.2206 44.1428L35.579 43.3222L78.7061 29.9546C80.0564 29.5355 81.4021 29.1208 82.7524 28.7016C83.9667 29.1119 85.1856 29.5266 86.3999 29.9369C100.804 34.4016 115.204 38.8619 129.609 43.3266C112.608 48.5943 98.1763 53.059 83.5182 57.5634ZM138.906 121.763C138.906 122.562 138.793 122.694 137.969 122.99C124.792 127.618 111.412 132.356 98.4753 136.944L86.9029 141.043C86.9029 141.043 86.8712 141.056 86.8531 141.06V125.765L87.057 90.0163L86.8802 71.809C87.6732 72.6913 88.4707 73.5737 89.2681 74.456C92.2496 77.7605 95.3353 81.1752 98.2986 84.5899C99.9706 86.5046 101.806 87.0163 104.257 86.2399C113.143 83.434 122.2 80.6413 130.959 77.9369L138.589 75.581C138.684 75.5546 138.775 75.5281 138.87 75.5016V85.8163C138.866 97.5825 138.861 109.746 138.906 121.71V121.763ZM132.364 69.4884C122.93 72.409 113.174 75.4266 103.591 78.431C102.871 78.656 102.703 78.6119 102.223 78.0649C99.1731 74.5972 96.0286 71.1163 92.9882 67.7458C91.7874 66.4134 90.5912 65.081 89.395 63.7531C89.3633 63.7222 89.3361 63.6869 89.3089 63.656C89.3452 63.6428 89.3814 63.634 89.4177 63.6208C93.9125 62.231 98.4074 60.8413 102.902 59.4516C115.141 55.6707 127.792 51.7575 140.23 47.8796C140.973 47.6457 141.113 47.681 141.593 48.2237C144.625 51.6649 147.747 55.1281 150.764 58.4766C152.015 59.8575 153.261 61.2428 154.503 62.6281L132.364 69.4884Z" fill="#FA5F10"/>
</svg>
