<svg width="144" height="144" viewBox="0 0 144 144" fill="none" xmlns="http://www.w3.org/2000/svg">
<g clip-path="url(#clip0_44_2)">
<path d="M81.2793 0.000103588C83.3256 0.722023 84.34 2.22573 84.8225 4.29992C85.9214 9.03994 87.1541 13.7483 88.2812 18.4812C88.4854 19.3405 88.8482 19.8265 89.7005 20.154C92.0145 21.0379 94.2969 22.0063 96.5545 23.0276C97.3258 23.3762 97.8964 23.348 98.622 22.9043C102.253 20.6787 105.92 18.5059 109.579 16.319C112.414 14.6251 113.975 14.8188 116.32 17.1642C119.867 20.7104 123.417 24.2531 126.954 27.8063C129.084 29.9474 129.285 31.6096 127.728 34.2156C125.548 37.8745 123.375 41.5439 121.142 45.1711C120.649 45.974 120.564 46.6044 120.973 47.4883C122.012 49.7351 122.959 52.0276 123.858 54.3342C124.164 55.123 124.583 55.5069 125.411 55.7041C130.328 56.8768 135.23 58.0952 140.133 59.3207C142.856 60.0004 143.983 61.4301 143.99 64.2227C144.004 69.4241 144.004 74.6289 143.99 79.8303C143.983 82.5454 142.842 84.0033 140.218 84.6583C135.315 85.8838 130.412 87.1058 125.495 88.275C124.625 88.4827 124.161 88.8666 123.84 89.7118C122.995 91.9409 122.086 94.1489 121.093 96.3112C120.719 97.1246 120.698 97.7057 121.181 98.4875C123.393 102.072 125.541 105.7 127.7 109.32C129.292 111.993 129.095 113.669 126.922 115.852C123.35 119.441 119.772 123.019 116.183 126.59C114.073 128.688 112.309 128.907 109.752 127.382C106.173 125.248 102.591 123.114 99.0376 120.937C98.2944 120.483 97.7133 120.388 96.8644 120.79C94.4976 121.902 92.0744 122.906 89.6407 123.86C88.8412 124.174 88.4854 124.617 88.2917 125.431C87.1153 130.347 85.8967 135.249 84.6746 140.155C83.9983 142.866 82.5613 143.982 79.7577 143.99C74.6014 144.004 69.4451 144 64.2923 143.99C61.4113 143.982 60.0165 142.88 59.3121 140.056C58.1005 135.196 56.8854 130.34 55.7302 125.47C55.5224 124.586 55.1067 124.149 54.2755 123.825C51.9228 122.909 49.5912 121.938 47.2983 120.892C46.5164 120.536 45.9599 120.575 45.2449 121.015C41.7722 123.145 38.2712 125.227 34.7738 127.315C32.0548 128.938 30.3818 128.731 28.1277 126.484C24.5774 122.945 21.0272 119.399 17.484 115.849C15.3355 113.694 15.1277 111.947 16.7021 109.309C18.7906 105.812 20.8828 102.315 23.0066 98.8397C23.4327 98.1424 23.5208 97.5965 23.1474 96.7971C22.0697 94.4659 21.0835 92.0853 20.1643 89.6871C19.8367 88.8349 19.3507 88.4757 18.4877 88.2715C13.7541 87.1481 9.04507 85.9155 4.30436 84.8168C2.22986 84.3379 0.722409 83.3237 0.00390625 81.2776V62.7155C0.722409 60.6695 2.22633 59.6553 4.30084 59.1763C9.03802 58.0776 13.74 56.8345 18.4737 55.7217C19.4176 55.4998 19.8754 55.0632 20.1995 54.1722C20.9004 52.2424 21.6717 50.3302 22.5276 48.4638C22.9185 47.6116 22.9115 46.9742 22.4113 46.1572C20.0093 42.2517 17.6777 38.3041 15.3249 34.367C13.6731 31.6026 13.8914 29.9228 16.1949 27.6162C19.7029 24.1016 23.2108 20.5906 26.7259 17.0867C28.9765 14.8435 30.6002 14.6498 33.3544 16.2979C37.1723 18.5763 40.9973 20.8372 44.7835 23.1684C45.569 23.6509 46.1677 23.6333 46.9743 23.267C49.3552 22.1859 51.7608 21.1541 54.1945 20.1998C55.068 19.8582 55.5188 19.4144 55.7372 18.4671C56.8431 13.7342 58.0864 9.02938 59.1818 4.29288C59.6608 2.21868 60.6787 0.718501 62.7215 -0.00341797H81.2828L81.2793 0.000103588ZM119.223 111.595C116.937 107.784 114.781 104.108 112.538 100.484C111.358 98.5826 111.382 96.8324 112.351 94.8039C113.918 91.5219 115.369 88.1623 116.567 84.7323C117.352 82.4855 118.638 81.2319 120.924 80.7071C125.439 79.6718 129.919 78.485 134.427 77.418C135.244 77.2243 135.607 76.9743 135.586 76.0552C135.519 73.3365 135.533 70.6179 135.579 67.8992C135.593 67.0858 135.322 66.7829 134.526 66.5963C129.972 65.5222 125.446 64.3319 120.889 63.2754C118.606 62.7472 117.324 61.4618 116.549 59.2221C115.387 55.8766 114.049 52.5629 112.443 49.4111C111.263 47.0974 111.21 45.1746 112.608 42.9842C114.897 39.3993 117.011 35.7017 119.061 32.2787C116.535 29.7608 114.13 27.3591 111.668 24.9046C108.125 27.0281 104.402 29.1903 100.749 31.4723C98.7523 32.7189 96.956 32.7118 94.8216 31.6624C91.5602 30.0566 88.1861 28.6374 84.7556 27.4366C82.512 26.6513 81.244 25.3764 80.7157 23.0874C79.6662 18.527 78.4722 14.0018 77.4015 9.44844C77.2113 8.63496 76.8767 8.40254 76.0842 8.41663C73.4145 8.45888 70.7412 8.46945 68.0715 8.41663C67.1628 8.39902 66.793 8.65609 66.5781 9.58578C65.5215 14.1427 64.3346 18.6714 63.2603 23.2248C62.7496 25.3905 61.5204 26.616 59.3896 27.3908C55.7548 28.7149 52.1729 30.2327 48.7036 31.9406C46.5798 32.9865 44.7941 33.064 42.783 31.8068C38.9334 29.3981 35.0098 27.1161 30.9735 24.7003C28.8638 26.8344 26.7893 28.9931 24.6408 31.0778C23.9505 31.7469 23.8307 32.2118 24.3661 33.0816C26.6836 36.8215 28.8884 40.6354 31.1778 44.3929C32.2203 46.1043 32.252 47.7278 31.4173 49.5766C29.9239 52.8939 28.5785 56.2852 27.2894 59.687C26.6202 61.4513 25.5988 62.6521 23.7145 63.0818C21.9359 63.4867 20.1713 63.9586 18.3997 64.3988C15.0925 65.2193 11.7888 66.0434 8.44279 66.8745C8.44279 70.0897 8.47097 73.1781 8.42518 76.27C8.4111 77.1187 8.86544 77.2384 9.5135 77.3934C14.064 78.4886 18.5934 79.6612 23.151 80.7212C25.3734 81.2389 26.6413 82.4679 27.4232 84.6583C28.6947 88.2116 30.1916 91.7015 31.8258 95.1033C32.7979 97.1282 32.8719 98.8749 31.6779 100.784C29.6457 104.041 27.698 107.351 25.7608 110.665C25.5495 111.024 25.4016 111.764 25.5988 111.972C27.8283 114.303 30.1282 116.564 32.4422 118.874C36.077 116.701 39.6484 114.648 43.1317 112.454C45.1322 111.193 46.9285 111.211 49.0593 112.253C52.3666 113.87 55.7724 115.331 59.2452 116.553C61.4852 117.342 62.7637 118.606 63.292 120.895C64.3451 125.456 65.5356 129.981 66.6063 134.534C66.7965 135.341 67.1135 135.591 67.9165 135.577C70.5863 135.531 73.2595 135.527 75.9292 135.577C76.8274 135.594 77.2148 135.358 77.4332 134.418C78.5039 129.815 79.6979 125.241 80.7897 120.642C81.2934 118.515 82.5648 117.367 84.6217 116.609C88.2107 115.289 91.7469 113.789 95.1809 112.112C97.2589 111.098 99.0376 111.056 100.982 112.267C104.282 114.32 107.628 116.3 110.984 118.258C111.365 118.479 112.164 118.589 112.4 118.363C114.704 116.169 116.93 113.894 119.23 111.591L119.223 111.595Z" fill="#FA5F10"/>
<path d="M101.52 72.199C101.351 88.4932 87.9739 101.692 71.797 101.523C55.5039 101.354 42.3067 87.9756 42.4722 71.7975C42.6413 55.5033 56.0181 42.3045 72.195 42.4735C88.4881 42.6426 101.685 56.021 101.516 72.199H101.52ZM93.0845 72.0581C93.1197 60.4546 83.6277 50.9253 72.0189 50.9077C60.4665 50.8936 50.9816 60.3067 50.9041 71.868C50.8266 83.468 60.2869 93.0325 71.8992 93.0889C83.5009 93.1452 93.0457 83.6687 93.0845 72.0581Z" fill="#FA5F10"/>
</g>
<defs>
<clipPath id="clip0_44_2">
<rect width="144" height="144" fill="white"/>
</clipPath>
</defs>
</svg>
