<svg width="137" height="145" viewBox="0 0 137 145" fill="none" xmlns="http://www.w3.org/2000/svg">
<path d="M52.1651 145C49.9721 144.087 47.5626 143.517 45.6242 142.192C39.5679 138.045 37.4833 130.033 40.353 123.07C40.4911 122.735 40.6373 122.403 40.8241 121.967C37.4562 121.13 34.6162 119.519 32.2338 117.029C29.2314 113.889 27.8425 110.031 27.3038 105.681C25.4763 90.9064 23.5622 76.1463 21.6834 61.3806C19.7693 46.3341 17.8606 31.2848 15.9465 16.2383C15.6352 13.7991 14.9015 11.5017 13.1688 9.79426C12.492 9.12773 11.4037 8.66825 10.4669 8.586C8.40937 8.40732 6.32744 8.55197 4.25363 8.5236C1.77643 8.49524 -0.032057 6.64598 0.000430795 4.22379C0.0329186 1.85833 1.82246 0.0743072 4.24009 0.0431081C6.13251 0.0175815 8.02763 0.12536 9.91464 0.0204178C14.5631 -0.240521 17.9229 2.01716 20.5625 5.78659C23.0208 9.29507 23.8817 13.3566 24.323 17.5742C24.499 19.2504 24.7453 20.921 24.9809 22.7589C25.6198 22.7589 26.191 22.7589 26.765 22.7589C58.7032 22.7589 90.6415 22.7703 122.58 22.7504C128.032 22.7476 132.424 24.7557 135.285 29.7872C137.264 33.2645 137.21 37.0283 136.698 40.9026C135.136 52.7158 133.669 64.5459 132.161 76.3676C131.785 79.3116 131.506 82.2755 130.989 85.1912C129.521 93.4675 122.758 99.3755 114.655 99.4719C108.756 99.5428 102.854 99.4861 96.9523 99.4861C76.8612 99.4861 56.7702 99.4861 36.6792 99.4861C36.1052 99.4861 35.5286 99.4861 34.5891 99.4861C35.155 102.592 35.3201 105.627 36.3002 108.335C37.6078 111.949 40.5425 113.724 44.2759 113.772C48.2395 113.824 52.203 113.784 56.1692 113.784C78.9621 113.784 101.758 113.784 124.551 113.792C125.311 113.792 126.102 113.781 126.825 113.982C128.663 114.496 129.911 116.495 129.703 118.404C129.462 120.611 127.813 122.208 125.547 122.256C122.62 122.321 119.691 122.276 116.764 122.276C116.274 122.276 115.782 122.276 115.281 122.276C115.709 123.949 116.283 125.501 116.48 127.103C117.56 135.776 112.492 143.032 104.257 144.756C104.094 144.79 103.951 144.915 103.799 145H99.7435C99.5919 144.918 99.4457 144.79 99.2833 144.759C91.053 143.037 85.9822 135.776 87.057 127.106C87.2546 125.503 87.8313 123.955 88.2374 122.358H67.3937C67.6022 122.939 67.7701 123.419 67.9433 123.895C70.9701 132.254 66.5491 141.701 58.3919 144.297C57.5851 144.555 56.7675 144.767 55.9526 145H52.1678H52.1651ZM26.1315 31.3472C26.1829 32.0052 26.2019 32.5668 26.2723 33.117C27.2252 40.5453 28.2188 47.9678 29.1068 55.4017C29.2503 56.6043 29.5698 56.9447 30.7312 56.939C39.9199 56.8851 49.1058 56.9078 58.2944 56.9078H59.797C59.2447 48.2741 58.706 39.8022 58.1645 31.3444H26.1315V31.3472ZM60.3412 65.4819H30.4767C30.5255 66.1172 30.5417 66.6731 30.6121 67.2177C31.5624 74.6403 32.556 82.0543 33.4412 89.4854C33.5847 90.6993 33.9204 91.0283 35.071 91.0198C43.5314 90.9688 51.9918 90.9914 60.4522 90.9886C60.926 90.9886 61.397 90.9461 61.9602 90.9205C61.4133 82.3408 60.8772 73.9369 60.3385 65.4791L60.3412 65.4819ZM126.457 56.8369C127.228 50.7275 127.956 44.7004 128.761 38.6847C129.405 33.8545 127.339 31.2593 122.715 31.2536C115.782 31.2451 108.848 31.2536 101.915 31.2536C101.479 31.2536 101.046 31.2536 100.491 31.2536C99.9438 39.8674 99.4078 48.311 98.8663 56.8397H126.459L126.457 56.8369ZM96.6924 90.9149C103.249 90.9149 109.59 91.068 115.92 90.8525C119.269 90.739 122.406 87.344 122.975 83.8355C123.368 81.4218 123.636 78.9883 123.947 76.5604C124.415 72.8903 124.87 69.2201 125.339 65.4876H98.3086C97.7699 73.9652 97.2365 82.3691 96.6924 90.9177V90.9149ZM90.7254 56.8709C91.2669 48.3763 91.8056 39.9014 92.3471 31.3841H66.2973C66.8442 39.961 67.3856 48.4018 67.9244 56.8709H90.7227H90.7254ZM90.1758 65.4961H68.4685C69.0127 74.0333 69.5515 82.4713 70.0902 90.8979H88.5623C89.101 82.406 89.6344 73.9993 90.1758 65.4961ZM47.2188 129.451C47.2513 133.374 50.2862 136.52 54.025 136.502C57.734 136.485 60.796 133.266 60.796 129.383C60.796 125.415 57.7124 122.244 53.8923 122.287C50.1319 122.33 47.1836 125.492 47.2161 129.451H47.2188ZM101.733 122.287C97.9837 122.301 94.9543 125.469 94.9516 129.378C94.9488 133.252 98.0244 136.488 101.728 136.502C105.494 136.52 108.632 133.224 108.58 129.313C108.526 125.387 105.491 122.27 101.736 122.284L101.733 122.287Z" fill="#FA5F10"/>
</svg>
