<svg width="200" height="221" viewBox="0 0 200 221" fill="none" xmlns="http://www.w3.org/2000/svg">
<path d="M199.445 129.606C199.088 127.838 198.672 126.052 196.619 125.441C194.579 124.829 193.27 126.04 191.973 127.351C188.736 130.621 185.505 133.902 182.156 137.053C181.555 137.622 180.353 137.949 179.526 137.806C177.051 137.373 174.593 136.732 172.184 135.991C171.511 135.783 170.732 135.018 170.524 134.353C169.774 131.956 169.138 129.511 168.697 127.043C168.554 126.218 168.864 125.013 169.429 124.42C172.707 120.984 176.105 117.662 179.49 114.333C180.722 113.122 181.65 111.829 181.114 110.019C180.579 108.203 179.062 107.61 177.384 107.301C166.282 105.278 156.81 108.346 149.617 116.973C146.808 120.338 145.095 124.61 142.822 128.58C142.453 128.366 141.662 127.82 140.799 127.428C139.532 126.853 138.978 126.17 139.187 124.586C139.448 122.533 138.068 121.358 136.105 120.872C131.636 119.762 127.18 118.599 122.7 117.567C121.825 117.371 120.451 117.306 119.969 117.81C118.285 119.548 116.625 118.676 114.924 118.166C112.645 117.49 110.384 116.76 108.117 116.065C103.572 114.683 103.667 114.683 103.53 109.912C103.476 108.085 104.208 107.123 105.517 105.907C108.813 102.851 112.258 99.7597 114.715 96.0689C116.625 93.2029 118.47 92.2654 121.766 92.3485C127.603 92.4909 132.749 88.6459 134.79 83.2403C136.807 77.8822 135.462 71.8595 131.196 67.9729C130.119 66.9879 129.869 66.1691 130.149 64.745C131.309 58.7995 132.6 52.848 131.696 46.7244C130.964 41.7461 130.149 36.7855 129.429 31.8071C126.764 13.3356 111.544 0.0975355 92.8323 0.0263313C85.5439 0.00259659 78.2555 -0.0211381 70.9671 0.032265C54.1234 0.162806 39.5287 11.692 35.7031 27.9799C34.7928 31.8605 34.3822 35.8539 33.6623 39.782C32.1332 48.1426 31.2348 56.4913 34.061 64.7628C34.5488 66.1869 34.1799 66.9761 33.109 67.9789C25.1602 75.4078 28.2005 88.6103 38.6125 91.7255C40.6949 92.3485 43.0034 92.3604 45.2167 92.39C46.6387 92.4138 47.3407 92.9003 48.2034 94.0396C50.9225 97.6176 53.469 101.546 56.9257 104.281C60.091 106.785 61.1441 109.307 60.799 113.021C60.6681 114.41 60.2278 114.896 58.9784 115.253C55.4086 116.267 51.8744 117.412 48.3343 118.522C47.0551 118.92 45.9247 119.329 44.7348 118.041C44.2231 117.484 42.8903 117.294 42.0514 117.484C37.2738 118.558 32.52 119.756 27.784 121.002C26.0169 121.465 24.7496 122.788 25.1304 124.58C25.5171 126.42 24.4997 126.841 23.3336 127.547C10.1312 135.564 2.12283 147.14 0.534254 162.485C-0.304657 170.548 0.207019 178.749 0.00472869 186.884C-0.066668 189.584 0.647299 191.548 3.72926 192.135V220.279H10.7975V192.076H33.2696C31.7287 201.368 30.2115 210.53 28.6705 219.822C31.1396 220.207 33.3648 220.558 35.6852 220.92C37.9342 207.551 40.1356 194.455 42.3192 181.478H105.517C100.198 186.765 95.1587 191.791 90.1014 196.793C87.5133 199.345 85.9664 202.383 85.7581 206.014C85.4428 211.61 88.5604 216.736 93.6356 219.104C98.8535 221.537 104.756 220.563 109.075 216.38C113.817 211.782 118.47 207.088 123.11 202.395C123.664 201.831 123.914 200.976 124.306 200.258C124.616 200.472 124.919 200.686 125.229 200.899C126.359 207.545 127.495 214.197 128.656 221.003C131.125 220.569 133.35 220.184 135.635 219.786C134.272 211.556 132.945 203.611 131.648 195.66C131.387 194.028 132.713 192.028 134.254 192.011C140.626 191.928 146.999 191.975 153.609 191.975V220.231H160.737V192.153C163.795 190.984 164.271 190.314 164.271 187.181C164.277 179.057 164.271 170.934 164.271 162.698C164.681 162.764 165.175 162.823 165.663 162.924C185.624 166.976 203.402 149.454 199.445 129.606ZM136.95 133.635C141.019 135.332 143.821 137.694 143.768 142.263C143.762 142.737 143.702 143.36 143.405 143.657C139.466 147.627 135.48 151.549 131.5 155.489C131.381 155.418 131.262 155.346 131.143 155.281C133.07 148.107 134.992 140.939 136.95 133.635ZM124.027 125.191C126.645 125.856 128.864 126.42 131.303 127.037C129.869 132.431 128.477 137.694 127.067 142.957C125.211 149.881 123.408 156.83 121.415 163.713C120.969 165.256 120.005 166.745 118.958 167.991C117.44 169.807 115.644 171.391 113.948 173.047C113.46 173.527 112.889 173.919 112.359 174.352C112.169 174.239 111.984 174.127 111.794 174.014C115.852 157.803 119.915 141.598 124.027 125.191ZM108.278 123.827C104.196 131.268 100.121 138.702 95.8667 146.464C92.9037 142.773 90.1788 139.379 87.4895 136.038C90.5774 133.083 93.5701 130.241 96.5331 127.375C97.1161 126.811 97.6338 126.17 98.1633 125.553C102.013 121.068 102.524 120.973 108.278 123.827ZM127.519 74.5949C129.007 77.0159 128.989 79.5555 127.466 81.9408C125.8 84.5516 123.325 85.6019 120.338 85.2756C120.82 80.4811 121.272 75.9419 121.748 71.2127C124.217 71.1593 126.169 72.4054 127.519 74.5949ZM123.813 60.0455C123.551 61.3628 123.295 62.6801 123.045 63.9855H120.772C119.445 61.0305 122.397 61.1255 123.813 60.0455ZM47.8108 18.7115C53.6355 11.4665 61.1441 7.4553 70.4554 7.19422C77.964 6.98061 85.4785 7.07555 92.993 7.14675C107.957 7.29509 120.052 17.8036 122.295 32.5132C122.884 36.3701 123.467 40.227 124.015 43.8703C116.09 42.2504 108.26 40.6543 100.002 38.9691V37.1178C100.002 33.1956 100.037 29.2675 99.9899 25.3454C99.9601 22.8057 98.6571 21.3876 96.2058 21.3757C86.8291 21.3283 77.4582 21.3283 68.0874 21.3757C65.6361 21.3876 64.3391 22.8057 64.3153 25.3572C64.2737 30.0033 64.3034 34.6553 64.3034 38.9632C56.0333 40.6543 48.2094 42.2504 40.2725 43.8703C41.7896 35.2961 41.8194 26.1642 47.8108 18.7115ZM92.749 28.5614V38.9513H71.5978V28.5614H92.749ZM43.6341 63.938C42.9141 63.9855 42.1942 64.033 41.2482 64.0923C40.8793 62.6207 40.5164 61.1848 40.1594 59.7488C41.3791 61.1373 44.711 60.7694 43.6341 63.938ZM35.7566 78.8019C35.3877 74.3576 39.2908 70.8923 42.5631 71.2127C43.0212 75.8351 43.4794 80.4396 43.9494 85.1806C39.6239 85.6078 36.0898 82.8902 35.7566 78.8019ZM42.6405 51.4002C54.8076 44.5824 106.189 43.9474 121.76 51.2815C118.38 55.7911 114.156 57.7611 108.409 56.4141C96.5331 53.6312 84.4908 52.5276 72.3296 53.8211C67.0224 54.3848 61.7034 55.1621 56.5033 56.3429C50.6547 57.6721 46.1389 56.1471 42.6405 51.4002ZM50.9284 64.7213C71.8477 59.1733 92.4635 59.2089 113.222 64.656C116.548 77.9949 112.871 91.1202 102.162 99.6766C91.4163 108.263 76.417 108.992 64.8508 101.617C52.7014 93.8675 47.3764 79.4427 50.9284 64.7213ZM56.8424 123.346C58.7523 122.765 60.8466 121.459 62.5363 121.857C64.0535 122.213 65.1483 124.426 66.3858 125.85C69.5332 129.487 72.6628 133.137 76.0125 137.029C74.1323 139.373 71.3776 142.803 68.4385 146.464C64.2082 138.756 60.1326 131.321 55.9976 123.779C56.4498 123.542 56.6342 123.405 56.8424 123.346ZM37.018 175.171C36.3397 175.646 35.953 176.749 35.7566 177.633C35.2449 179.936 34.9118 182.279 34.4893 184.724H7.47163C7.41214 184.647 7.23959 184.534 7.24554 184.427C7.35264 177.028 6.85881 169.564 7.73937 162.259C9.2506 149.674 16.1285 140.251 27.2961 133.386C28.7419 138.797 30.0627 143.782 31.4014 148.766C33.5076 156.622 35.6079 164.478 37.7379 172.323C38.0413 173.444 38.2496 174.322 37.018 175.171ZM45.6034 174.121C41.4327 158.557 37.25 142.957 32.9841 127.037C35.3699 126.432 37.6903 125.844 40.2725 125.191C44.3778 141.515 48.4355 157.678 52.5705 174.121H45.6034ZM78.4102 174.091H60.1624C57.9848 168.923 47.9952 127.12 48.7687 125.636C49.2387 126.42 49.6611 127.066 50.03 127.743C54.7303 136.299 59.4127 144.868 64.119 153.424C66.2252 157.251 68.724 157.459 71.4728 154.065C73.704 151.306 75.9292 148.54 78.4102 145.467V174.091ZM68.4563 116.772C67.5639 115.413 67.897 113.247 67.6114 110.992C77.3868 114.606 86.7993 114.665 96.2653 111.129C96.6878 114.125 96.4855 116.605 94.4031 119.009C90.7083 123.275 86.8469 127.304 82.1585 130.633C76.7145 126.788 72.0559 122.242 68.4563 116.772ZM104.393 174.109H85.8831V145.443C88.4176 148.594 90.7142 151.46 93.0227 154.314C95.4859 157.346 98.1395 157.15 100.014 153.75C104.797 145.069 109.539 136.365 114.311 127.672C114.674 127.007 115.084 126.372 115.477 125.725C115.769 125.826 116.054 125.933 116.346 126.034C112.55 142.085 108.337 158.034 104.393 174.109ZM156.935 184.748H141.543C146.683 179.651 151.86 174.518 156.935 169.486V184.748ZM165.092 155.37C162.313 154.468 160.552 155.02 158.589 156.99C140.704 174.892 122.748 192.717 104.827 210.583C103.316 212.09 101.721 213.342 99.4484 213.336C96.7354 213.336 94.6946 212.144 93.4987 209.758C92.2969 207.373 92.5646 205.011 94.2186 202.881C94.8076 202.128 95.5276 201.469 96.2058 200.787C113.93 183.14 131.63 165.481 149.402 147.882C151.366 145.942 151.973 144.191 151.056 141.408C146.832 128.633 155.917 115.075 169.81 113.971C167.305 116.433 165.193 118.67 162.908 120.711C160.957 122.444 160.391 124.301 161.141 126.835C162.313 130.805 163.259 134.846 164.217 138.869C164.663 140.738 165.716 141.806 167.597 142.251C171.928 143.277 176.259 144.328 180.555 145.491C182.447 146.001 183.899 145.544 185.19 144.197C187.534 141.764 189.89 139.343 192.627 136.519C191.669 150.404 177.943 159.547 165.092 155.37Z" fill="#FA5F10"/>
</svg>
